<svg data-v-423bf9ae="" xmlns="http://www.w3.org/2000/svg" viewBox="0 0 455 90" class="iconLeft"><!----><!----><!----><g data-v-423bf9ae="" id="95de5f01-e7a5-4e76-84b2-391b63740478" fill="white" transform="matrix(4.569687698175228,0,0,4.569687698175228,147.10708167515767,3.9413549449392917)"><path d="M4.18 2.42L4.18 2.42Q5.61 2.42 6.39 2.76L6.39 2.76L6.39 2.76Q7.18 3.10 7.86 3.79L7.86 3.79L6.49 5.15L6.49 5.15Q5.81 4.33 4.58 4.33L4.58 4.33L4.58 4.33Q3.35 4.33 3.01 4.92L3.01 4.92L3.01 4.92Q2.67 5.50 3.01 5.91L3.01 5.91L3.01 5.91Q3.35 6.32 4.58 6.52L4.58 6.52L4.58 6.52Q5.88 6.66 6.94 7.38L6.94 7.38L6.94 7.38Q8.00 8.09 8.00 9.67L8.00 9.67L8.00 9.67Q8.00 10.90 6.87 11.79L6.87 11.79L6.87 11.79Q5.74 12.67 4.23 12.67L4.23 12.67L4.23 12.67Q2.80 12.67 1.85 12.26L1.85 12.26L1.85 12.26Q0.89 11.85 0.21 11.17L0.21 11.17L1.57 9.80L1.57 9.80Q2.26 10.62 3.90 10.76L3.90 10.76L3.90 10.76Q5.26 10.76 5.60 10.18L5.60 10.18L5.60 10.18Q5.94 9.60 5.60 9.02L5.60 9.02L5.60 9.02Q5.26 8.44 3.90 8.30L3.90 8.30L3.90 8.30Q2.67 8.16 1.64 7.55L1.64 7.55L1.64 7.55Q0.62 6.93 0.62 5.43L0.62 5.43L0.62 5.43Q0.62 4.07 1.78 3.24L1.78 3.24L1.78 3.24Q2.95 2.42 4.18 2.42L4.18 2.42ZM11.59 8.05L11.59 8.05L11.59 12.67L9.67 12.67L9.67 2.42L11.59 2.42L11.59 6.45L11.59 6.45Q12.28 5.84 13.23 5.84L13.23 5.84L13.23 5.84Q14.53 5.84 15.21 6.62L15.21 6.62L15.21 6.62Q15.89 7.41 15.89 8.44L15.89 8.44L15.89 12.67L13.98 12.67L13.98 8.91L13.98 8.91Q13.98 8.23 13.64 7.85L13.64 7.85L13.64 7.85Q13.30 7.48 12.61 7.46L12.61 7.46L12.61 7.46Q12.01 7.50 11.59 8.05ZM18.07 7.82L17.32 6.66L17.32 6.66Q18.62 5.84 20.33 5.84L20.33 5.84L20.33 5.84Q21.56 5.84 22.28 6.52L22.28 6.52L22.28 6.52Q23.00 7.21 23.00 8.57L23.00 8.57L23.00 12.67L21.08 12.67L21.08 12.13L21.08 12.13Q20.25 12.67 19.58 12.67L19.58 12.67L19.58 12.67Q18.21 12.67 17.53 12.09L17.53 12.09L17.53 12.09Q16.84 11.51 16.84 10.49L16.84 10.49L16.84 10.49Q16.84 9.53 17.49 8.78L17.49 8.78L17.49 8.78Q18.14 8.03 19.58 8.03L19.58 8.03L19.58 8.03Q20.24 8.03 21.08 8.44L21.08 8.44L21.08 8.23L21.08 8.23Q21.07 7.48 19.99 7.41L19.99 7.41L19.99 7.41Q18.76 7.41 18.07 7.82L18.07 7.82ZM21.08 10.62L21.08 10.62L21.08 9.85L21.08 9.85Q20.81 9.32 19.78 9.32L19.78 9.32L19.78 9.32Q18.55 9.46 18.48 10.28L18.48 10.28L18.48 10.28Q18.55 11.09 19.78 11.16L19.78 11.16L19.78 11.16Q20.81 11.16 21.08 10.62ZM29.28 2.42L31.19 2.43L31.19 12.67L29.28 12.67L29.28 12.13L29.28 12.13Q28.51 12.67 27.77 12.67L27.77 12.67L27.77 12.67Q26.20 12.67 25.28 11.65L25.28 11.65L25.28 11.65Q24.36 10.62 24.36 9.26L24.36 9.26L24.36 9.26Q24.36 7.89 25.28 6.86L25.28 6.86L25.28 6.86Q26.20 5.84 27.77 5.84L27.77 5.84L27.77 5.84Q28.80 5.91 29.28 6.39L29.28 6.39L29.28 2.42ZM29.28 9.87L29.28 9.87L29.28 8.76L29.28 8.76Q29.14 7.62 27.84 7.42L27.84 7.42L27.84 7.42Q26.20 7.55 26.00 9.12L26.00 9.12L26.00 9.12Q26.07 11.03 27.84 11.10L27.84 11.10L27.84 11.10Q29.14 10.90 29.28 9.87ZM32.51 9.26L32.51 9.26L32.51 9.26Q32.51 7.75 33.47 6.79L33.47 6.79L33.47 6.79Q34.43 5.84 35.93 5.84L35.93 5.84L35.93 5.84Q37.43 5.84 38.32 6.79L38.32 6.79L38.32 6.79Q39.21 7.75 39.21 9.26L39.21 9.26L39.21 9.94L34.49 9.94L34.49 9.94Q34.56 10.49 34.97 10.79L34.97 10.79L34.97 10.79Q35.38 11.10 35.93 11.10L35.93 11.10L35.93 11.10Q36.89 11.10 37.64 10.55L37.64 10.55L38.73 11.65L38.73 11.65Q37.98 12.67 35.93 12.67L35.93 12.67L35.93 12.67Q34.43 12.67 33.47 11.72L33.47 11.72L33.47 11.72Q32.51 10.76 32.51 9.26ZM37.30 8.57L37.30 8.57Q37.30 8.03 36.89 7.72L36.89 7.72L36.89 7.72Q36.48 7.41 35.93 7.41L35.93 7.41L35.93 7.41Q35.38 7.41 34.97 7.72L34.97 7.72L34.97 7.72Q34.56 8.03 34.56 8.57L34.56 8.57L37.30 8.57ZM42.92 12.67L40.87 12.67L40.87 2.42L41.56 2.42L46.00 7.48L50.45 2.42L51.13 2.42L51.13 12.67L49.08 12.67L49.08 6.73L46.00 10.14L42.92 6.73L42.92 12.67ZM53.90 7.82L53.15 6.66L53.15 6.66Q54.45 5.84 56.16 5.84L56.16 5.84L56.16 5.84Q57.39 5.84 58.11 6.52L58.11 6.52L58.11 6.52Q58.82 7.21 58.82 8.57L58.82 8.57L58.82 12.67L56.91 12.67L56.91 12.13L56.91 12.13Q56.08 12.67 55.41 12.67L55.41 12.67L55.41 12.67Q54.04 12.67 53.35 12.09L53.35 12.09L53.35 12.09Q52.67 11.51 52.67 10.49L52.67 10.49L52.67 10.49Q52.67 9.53 53.32 8.78L53.32 8.78L53.32 8.78Q53.96 8.03 55.41 8.03L55.41 8.03L55.41 8.03Q56.07 8.03 56.91 8.44L56.91 8.44L56.91 8.23L56.91 8.23Q56.90 7.48 55.82 7.41L55.82 7.41L55.82 7.41Q54.58 7.41 53.90 7.82L53.90 7.82ZM56.91 10.62L56.91 10.62L56.91 9.85L56.91 9.85Q56.64 9.32 55.61 9.32L55.61 9.32L55.61 9.32Q54.38 9.46 54.31 10.28L54.31 10.28L54.31 10.28Q54.38 11.09 55.61 11.16L55.61 11.16L55.61 11.16Q56.64 11.16 56.91 10.62ZM62.42 15.55L60.50 15.54L60.50 6.04L62.42 5.83L62.42 6.38L62.42 6.38Q63.18 5.83 63.92 5.83L63.92 5.83L63.92 5.83Q65.50 5.83 66.42 6.86L66.42 6.86L66.42 6.86Q67.34 7.88 67.34 9.25L67.34 9.25L67.34 9.25Q67.34 10.62 66.42 11.64L66.42 11.64L66.42 11.64Q65.50 12.67 63.92 12.67L63.92 12.67L63.92 12.67Q62.90 12.60 62.42 12.11L62.42 12.11L62.42 15.55ZM62.42 8.63L62.42 8.63L62.42 9.74L62.42 9.74Q62.56 10.89 63.85 11.09L63.85 11.09L63.85 11.09Q65.50 10.96 65.70 9.39L65.70 9.39L65.70 9.39Q65.63 7.47 63.85 7.40L63.85 7.40L63.85 7.40Q62.56 7.61 62.42 8.63Z"></path></g><!----><g data-v-423bf9ae="" id="ab9b9c9b-e1cb-45d7-9b93-2c1f0b2165a8" transform="matrix(1.320248083726019,0,0,1.320248083726019,-0.35359966728773884,-19.954877168852263)" stroke="none" fill="white"><path d="M1 83.641l33.287-11.883 5.457-56.286L15.743 27.12zM63.988 27.617l4.866 56.024 29.148-11.779-14.151-55.787zM40.909 15.488l-4.938 56.27 31.092 11.883-4.35-56.037z"></path></g><!----></svg>